<svg xmlns="http://www.w3.org/2000/svg" xmlns:xlink="http://www.w3.org/1999/xlink" viewBox="0 0 4002.18 896.67"><defs><linearGradient id="a" x1="1749.12" y1="697.42" x2="1750" y2="698.1" gradientTransform="matrix(885.36, 0, 0, -896.67, -1548519.68, 626074.29)" gradientUnits="userSpaceOnUse"><stop offset="0" stop-color="#fd0fd0"/><stop offset="0.35" stop-color="#9d00ff"/><stop offset="0.63" stop-color="#0063ff"/><stop offset="1" stop-color="#00f5ff"/></linearGradient><linearGradient id="b" x1="-42047.52" y1="1927.34" x2="-42047.78" y2="1927.36" gradientTransform="matrix(0.04, 0, 0, -0.16, 2320.53, 976.99)" gradientUnits="userSpaceOnUse"><stop offset="0" stop-color="#821c1d"/><stop offset="1" stop-color="#fff"/></linearGradient><linearGradient id="c" x1="1743.73" y1="698.77" x2="1742.74" y2="696.69" gradientTransform="matrix(215.1, 0, 0, -314.44, -374226.82, 220139.59)" gradientUnits="userSpaceOnUse"><stop offset="0" stop-opacity="0.69"/><stop offset="1" stop-opacity="0"/></linearGradient><linearGradient id="d" x1="-6172.57" y1="3203.63" x2="-6172.57" y2="3203.64" gradientTransform="matrix(0.01, 0, 0, -0.01, 2384.27, 1008.79)" gradientUnits="userSpaceOnUse"><stop offset="0.01"/><stop offset="0.09" stop-color="#1d1d1d"/><stop offset="0.28" stop-color="#616161"/><stop offset="0.47" stop-color="#999"/><stop offset="0.63" stop-color="#c5c5c5"/><stop offset="0.79" stop-color="#e4e4e4"/><stop offset="0.91" stop-color="#f8f8f8"/><stop offset="1" stop-color="#fff"/></linearGradient><linearGradient id="e" x1="-7323.37" y1="845.02" x2="-7319.36" y2="845.5" gradientTransform="matrix(0.19, 0, 0, -1.34, 2127.17, 1784.51)" xlink:href="#d"/><linearGradient id="f" x1="1747.64" y1="698.32" x2="1746.6" y2="698.58" gradientTransform="matrix(401.52, 0, 0, -209.46, -700910.95, 146574.35)" gradientUnits="userSpaceOnUse"><stop offset="0" stop-opacity="0.73"/><stop offset="0.54" stop-opacity="0.31"/><stop offset="0.91" stop-opacity="0"/><stop offset="1" stop-opacity="0"/></linearGradient><linearGradient id="i" x1="1747.78" y1="697.39" x2="1746.99" y2="698.13" gradientTransform="matrix(425.28, 0, 0, -516.73, -742720.28, 361142.41)" gradientUnits="userSpaceOnUse"><stop offset="0" stop-opacity="0.44"/><stop offset="0.51" stop-opacity="0"/><stop offset="1" stop-opacity="0.9"/></linearGradient><linearGradient id="j" x1="1744.98" y1="697.96" x2="1745.78" y2="697.43" gradientTransform="matrix(281.23, 0, 0, -612.55, -490638.52, 428028.91)" gradientUnits="userSpaceOnUse"><stop offset="0" stop-opacity="0.9"/><stop offset="0.66" stop-opacity="0"/><stop offset="1" stop-opacity="0"/></linearGradient><linearGradient id="k" x1="-43144.38" y1="4297.79" x2="-43144.1" y2="4297.12" gradientTransform="matrix(0.04, 0, 0, -0.06, 1827.34, 462.13)" xlink:href="#d"/></defs><path d="M322.16,881.91c-91.19-26.73-173.23-83.49-231-159.83C31.51,643.32,0,549.3,0,450.19,0,202,202,0,450.2,0A448.8,448.8,0,0,1,799.05,165.6c20.4,25,40.32,52.78,40.32,93.62,0,115.5-148,164.67-217.17,72.15l0,0a208.92,208.92,0,0,0-172-90.19c-115.25,0-209,93.76-209,209,0,74.56,42.11,173.42,160.3,227.26,64.11,29.21,146.76,45.08,223.61,34,22.16-54.94,26-103.9,28.46-128,2.08-20.26,5.24-50.9,18.23-78.08,46.81-98,213.56-81.29,213.56,59.18,0,72.75-78.85,177.36-214.43,210.21C597.91,886.08,450.09,919.41,322.16,881.91Zm128-811c-209.13,0-379.27,170.14-379.27,379.26,0,167.32,111.51,316.86,271.18,363.66,57.29,16.79,149.5,21.57,220.36-28.15C497.61,784,431,768.84,372.09,742c-148.8-67.79-201.82-195.19-201.82-291.8,0-154.35,125.58-279.92,279.93-279.92A279.88,279.88,0,0,1,678.82,288.63c28.43,38.54,89.63,18.45,89.63-29.41,0-16.13-7.85-28.58-24.34-48.75A378.1,378.1,0,0,0,450.2,70.93ZM767.09,514.85c-43,2.79-38.31,56-45.43,95.43-1.34,7.41-8.37,52.56-14.06,76.71C778.53,653,814,593.85,814.43,564.5c0-33-14.18-51.78-47.34-49.65Z" transform="translate(0 0)" fill="url(#a)"/><path d="M639.56,666.62a.5.5,0,0,1,0,.16.75.75,0,0,1,0-.16Z" transform="translate(0 0)" fill="url(#b)"/><path d="M815.19,698.47c55.5-52.18,70.17-105,70.17-133.91,0-48.33-17.74-74.72-35.59-91.83-17.36-16.66-90.34-28.64-116.52,68.86,5.57-14.87,15.24-25.53,33.84-26.73,12.14-.78,25.24,1.23,34.18,9.62,10.88,10.2,13.16,27.42,13.16,40,0,.53-2,39.24-47.82,82.28a232.45,232.45,0,0,1-59,40.21c.5-2.12.94-4.2,1.4-6.3C694.52,744,665.47,783.1,670.93,774.77,726.87,761.22,775.88,735.43,815.19,698.47Z" transform="translate(0 0)" fill="url(#c)"/><path d="M647.27,805.22Z" transform="translate(0 0)" fill="url(#d)"/><path d="M714.3,651.19c-.06.45-.13.89-.19,1.34C714.17,652.08,714.23,651.64,714.3,651.19Z" transform="translate(0 0)" fill="url(#e)"/><path d="M768.45,259.22c0,47.86-61.2,67.95-89.64,29.41a279.72,279.72,0,0,0-288-112l9,70.71a208.91,208.91,0,0,1,222.34,84l0,0c34.6,46.28,88.92,57.11,134.57,41.93,65.41-52.52,25.87-113.43-1.87-148.93C764,237.12,768.45,247.13,768.45,259.22Z" transform="translate(0 0)" fill="url(#f)"/><path d="M647.27,805.22Z" transform="translate(0 0)" fill="url(#d)"/><path d="M714.3,651.19c-.06.45-.13.89-.19,1.34C714.17,652.08,714.23,651.64,714.3,651.19Z" transform="translate(0 0)" fill="url(#e)"/><path d="M241.2,450.19c0-76.75,43.16-144.89,105-181.22C220.91,331.41,122.4,540.26,284.79,687.3c78,64.12,181.34,95.91,277.68,98.4,7.4-3.28,41.5-38.09,62.64-74.27C450.88,736.24,241.2,632.78,241.2,450.19Z" transform="translate(0 0)" fill="url(#i)"/><path d="M304.23,800.39C165.1,742.57,70.93,603.92,70.93,450.19c0-33.29,7.91-110.67,46.16-181.22C59.35,373.45-32.59,644,167.68,800.79c45.84,35.89,97.57,64.23,153.25,80.73C334.47,870.11,319.75,831.78,304.23,800.39Z" transform="translate(0 0)" fill="url(#j)"/><path d="M144.64,225.76v0l0,0Z" transform="translate(0 0)" fill="url(#k)"/><path d="M1696.13,591.17H1591.46c-17.8,0-33.5,6.28-47.1,19.89-23,26.17-51.3,39.77-83.75,39.77-77.46,1-116.19-54.43-116.19-164.34s36.64-165.39,109.91-165.39c44,0,73.28,19.89,90,57.57h151.77c-24.07-120.38-103.63-180-237.61-180C1287.89,201.77,1203.1,297,1203.1,486.49c4.19,190.51,90,286.82,257.51,286.82C1589.36,776.45,1671,704.22,1696.13,591.17Zm320.32-392.54c-167.49,0-251.23,95.25-251.23,287.86,0,190.51,83.74,286.82,251.23,286.82s252.27-96.3,252.27-286.82C2268.72,293.88,2183.93,198.63,2016.45,198.63Zm0,122.47c71.18,0,106.77,53.39,106.77,161.2-1,109.91-36.64,166.44-107.82,166.44s-107.81-54.43-108.86-162.25c0-109.91,36.63-165.39,109.91-165.39Zm458.48-202c0-46.06-23-70.13-69.08-70.13h-70.14V521c0,166.44,86.89,249.13,259.6,248.08C2767,766,2852.82,672.83,2852.82,488.59c0-188.42-73.27-284.72-220.87-290-69.09,0-121.43,28.27-157,85.84Zm118.29,204.12c75.37,0,114.1,52.34,117.24,159.11,0,112-39.78,168.53-119.33,168.53s-117.24-56.52-116.2-168.53C2479.12,375.53,2517.85,323.19,2593.22,323.19ZM2915.63,48.94V157.8h139.22V117c1-45-20.94-68-67-68Zm0,158.06V760.74h139.22V274c0-45-22-67-67-67Zm217.73,553.75h141.31V472.88c0-80.6,38.73-121.42,116.19-121.42H3438V207h-19.89c-185.28,0-280.53,89-284.72,268ZM3749.9,198.63c-167.48,0-251.22,95.25-251.22,287.86,0,190.51,83.74,286.82,251.22,286.82s252.28-96.3,252.28-286.82C4002.18,293.88,3917.39,198.63,3749.9,198.63Zm0,122.47c71.18,0,106.77,53.39,106.77,161.2-1,109.91-36.63,166.44-107.81,166.44S3641,594.31,3640,486.49c0-109.91,36.64-165.39,109.91-165.39Z" transform="translate(0 0)" fill="#00032c"/></svg>